<svg width="233" height="40" viewBox="0 0 233 40" fill="none" xmlns="http://www.w3.org/2000/svg">
<path d="M0.176 39.224C0.336 37.624 1.072 36.584 2.384 36.104C3.696 35.624 5.568 35.384 8 35.384C8.96 33.336 9.888 30.616 10.784 27.224C11.68 23.832 12.736 19.48 13.952 14.168C14.112 13.464 14.496 11.784 15.104 9.128C15.744 6.44 16.288 4.488 16.736 3.272C14.208 3.336 12.208 3.432 10.736 3.56C9.296 3.688 7.696 3.912 5.936 4.232C6.16 2.984 7.04 2.056 8.576 1.448C10.144 0.839997 12.528 0.535997 15.728 0.535997C17.808 0.535997 20.016 0.647998 22.352 0.871999C24.72 1.096 26.704 1.32 28.304 1.544C27.632 2.216 26.896 2.664 26.096 2.888C25.328 3.112 24.512 3.224 23.648 3.224C21.152 3.224 19.408 3.24 18.416 3.272L18.08 5C16.096 16.008 14.624 23.416 13.664 27.224C13.12 29.4 12.528 31.176 11.888 32.552C11.248 33.896 10.496 34.856 9.632 35.432C11.136 35.528 12.688 35.672 14.288 35.864C16.624 36.152 18.544 36.312 20.048 36.344C18.672 37.72 16.864 38.408 14.624 38.408H12.272C9.328 38.44 7.008 38.488 5.312 38.552C3.616 38.648 1.904 38.872 0.176 39.224ZM30.0853 36.248C28.9973 36.248 28.1333 35.96 27.4933 35.384C26.8853 34.808 26.5813 34.056 26.5813 33.128C26.5813 32.04 27.0453 30.472 27.9733 28.424C28.3893 27.368 28.6933 26.536 28.8853 25.928C29.1093 25.288 29.2213 24.696 29.2213 24.152C29.2213 23.352 29.0293 22.728 28.6453 22.28C28.2933 21.8 27.8933 21.416 27.4453 21.128C26.9973 20.808 26.6933 20.6 26.5333 20.504C25.8293 22.296 25.0773 24.056 24.2773 25.784C23.4773 27.48 22.8053 28.792 22.2613 29.72L21.8293 28.904C23.3653 25.928 24.6613 22.888 25.7173 19.784C25.3973 19.464 25.2373 19.08 25.2373 18.632C25.2373 18.056 25.3493 17.512 25.5733 17C25.8293 16.488 26.1173 16.088 26.4373 15.8C26.7893 15.512 27.0613 15.368 27.2533 15.368C27.7013 15.368 27.9253 15.752 27.9253 16.52C27.9253 16.648 27.8453 16.936 27.6853 17.384C27.5253 17.832 27.4293 18.136 27.3973 18.296C27.3973 18.616 27.5253 18.92 27.7812 19.208C28.0693 19.464 28.5173 19.8 29.1253 20.216C30.1173 20.92 30.8853 21.624 31.4293 22.328C32.0053 23 32.2933 23.88 32.2933 24.968C32.2933 25.672 32.1813 26.376 31.9573 27.08C31.7333 27.752 31.3973 28.648 30.9493 29.768C30.2453 31.304 29.8933 32.408 29.8933 33.08C29.8933 34.04 30.3733 34.52 31.3333 34.52C32.2933 34.52 33.3173 34.136 34.4053 33.368C35.5253 32.6 36.5493 31.656 37.4773 30.536C38.4053 29.384 39.0773 28.328 39.4933 27.368L40.1173 27.848C39.1253 30.056 37.6853 32.008 35.7973 33.704C33.9093 35.4 32.0053 36.248 30.0853 36.248ZM47.6848 14.264C47.1088 14.264 46.6288 14.136 46.2448 13.88C45.8928 13.592 45.7168 13.192 45.7168 12.68C45.7168 12.04 46.1008 11.464 46.8688 10.952C47.6368 10.44 48.4208 10.184 49.2208 10.184C50.2768 10.184 50.8047 10.68 50.8047 11.672C50.8047 12.28 50.4688 12.872 49.7968 13.448C49.1568 13.992 48.4528 14.264 47.6848 14.264ZM41.9248 36.248C40.7408 36.248 39.8288 35.864 39.1888 35.096C38.5487 34.36 38.2287 33.4 38.2287 32.216C38.2287 30.968 38.5808 29.24 39.2848 27.032C40.0208 24.824 40.9168 22.888 41.9728 21.224C43.0608 19.56 44.1168 18.728 45.1408 18.728C45.4288 18.728 45.6688 18.824 45.8608 19.016C46.0848 19.208 46.1968 19.464 46.1968 19.784C46.1968 20.232 45.6848 21.304 44.6608 23C43.6048 24.76 42.7568 26.344 42.1168 27.752C41.5088 29.128 41.2048 30.44 41.2048 31.688C41.2048 32.808 41.3808 33.576 41.7328 33.992C42.1168 34.376 42.7248 34.568 43.5568 34.568C46.0528 34.568 48.5168 32.12 50.9488 27.224L51.3808 27.704C50.4848 30.392 49.1568 32.488 47.3968 33.992C45.6688 35.496 43.8448 36.248 41.9248 36.248ZM55.0869 37.448C53.0069 37.448 51.4869 36.824 50.5269 35.576C49.5669 34.328 49.0869 32.856 49.0869 31.16C49.0869 29.88 49.3109 28.984 49.7589 28.472C50.2069 27.928 50.6869 27.544 51.1989 27.32C51.7429 27.096 52.0629 26.936 52.1589 26.84C54.2069 24.6 55.7909 22.28 56.9109 19.88V19.304C56.9109 18.216 57.0869 17.4 57.4389 16.856C57.8229 16.312 58.2709 16.04 58.7829 16.04C59.0389 16.04 59.2309 16.104 59.3589 16.232C59.4869 16.328 59.5509 16.472 59.5509 16.664C59.5509 16.792 59.5029 17.064 59.4069 17.48C59.3109 17.864 59.2629 18.296 59.2629 18.776C59.2629 19.416 59.3429 20.104 59.5029 20.84C59.6949 21.544 59.9829 22.472 60.3669 23.624C60.8149 25 61.1509 26.2 61.3749 27.224C61.6309 28.248 61.7589 29.288 61.7589 30.344C61.7589 31.176 61.6629 31.96 61.4709 32.696C62.6229 32.504 63.6949 31.992 64.6869 31.16C65.6789 30.296 66.6229 29 67.5189 27.272L67.9509 27.752C67.3749 29.416 66.4949 30.728 65.3109 31.688C64.1269 32.648 62.7669 33.24 61.2309 33.464C60.7509 34.776 59.9669 35.768 58.8789 36.44C57.7909 37.112 56.5269 37.448 55.0869 37.448ZM58.4469 32.648C58.5749 31.816 58.6389 31.064 58.6389 30.392C58.6389 29.432 58.5589 28.472 58.3989 27.512C58.2389 26.552 57.9989 25.448 57.6789 24.2C57.3909 22.92 57.2149 22.088 57.1509 21.704C55.5189 24.392 53.9669 26.472 52.4949 27.944C53.0069 29.064 53.7749 30.056 54.7989 30.92C55.8549 31.784 57.0709 32.36 58.4469 32.648ZM55.1829 35.768C56.6549 35.768 57.6629 34.984 58.2069 33.416C56.9269 33.16 55.7589 32.664 54.7029 31.928C53.6469 31.16 52.8469 30.328 52.3029 29.432C51.5989 29.464 51.2469 30.024 51.2469 31.112C51.2469 32.328 51.5989 33.416 52.3029 34.376C53.0389 35.304 53.9989 35.768 55.1829 35.768ZM79.7825 35.768C80.3905 34.456 82.0545 30.808 84.7745 24.824C87.4945 18.84 90.3905 12.376 93.4625 5.432C93.7825 4.696 93.9425 4.04 93.9425 3.464C93.9425 3.048 93.8305 2.744 93.6065 2.552C93.3825 2.328 92.9505 2.216 92.3105 2.216C91.0305 2.216 89.9425 2.664 89.0465 3.56C88.1505 4.424 87.4785 5.528 87.0305 6.872C86.5825 8.216 86.3585 9.576 86.3585 10.952C86.3585 11.368 86.3905 11.864 86.4545 12.44C85.6225 12.44 84.9825 12.024 84.5345 11.192C84.1185 10.36 83.9105 9.464 83.9105 8.504C83.9105 7.16 84.3905 5.864 85.3505 4.616C86.3105 3.368 87.5105 2.36 88.9505 1.592C90.4225 0.823998 91.8625 0.439999 93.2705 0.439999C94.3905 0.439999 95.2865 0.743999 95.9585 1.352C96.6625 1.96 97.1905 3.048 97.5425 4.616C97.9265 6.184 98.1185 8.376 98.1185 11.192C98.1185 13.784 97.9265 17.672 97.5425 22.856C97.3505 25.32 97.2065 27.736 97.1105 30.104C98.1985 25.912 100.215 21.128 103.159 15.752C106.135 10.376 108.679 6.136 110.791 3.032C111.303 2.264 111.703 1.752 111.991 1.496C112.311 1.208 112.711 1.064 113.191 1.064C113.639 1.064 114.151 1.176 114.727 1.4C113.927 3.32 113.207 5.56 112.567 8.12C111.479 12.344 110.471 17.208 109.543 22.712C108.647 28.184 108.199 32.36 108.199 35.24C108.199 36.008 108.231 36.584 108.295 36.968C108.359 37.352 108.471 37.768 108.631 38.216L108.919 39.176C107.831 39.176 106.999 39 106.423 38.648C105.879 38.296 105.495 37.752 105.271 37.016C105.079 36.28 104.983 35.208 104.983 33.8C104.983 30.376 105.383 26.728 106.182 22.856C106.983 18.984 108.183 14.008 109.783 7.928C108.375 9.752 106.807 12.376 105.079 15.8C103.351 19.192 101.735 22.664 100.231 26.216C98.7585 29.768 97.6545 32.648 96.9185 34.856C96.5665 34.984 96.3265 35.048 96.1985 35.048C95.3985 35.048 94.8385 34.584 94.5185 33.656C94.2305 32.696 94.0865 31.208 94.0865 29.192C94.0865 27.4 94.2145 23.944 94.4705 18.824C94.7265 13.768 94.8545 10.424 94.8545 8.792C94.8545 7.896 94.8225 7 94.7585 6.104C92.4545 11.448 90.4705 16.184 88.8065 20.312C86.5985 25.624 84.9505 29.48 83.8625 31.88C82.7745 34.28 81.7825 36.088 80.8865 37.304C79.9905 38.552 79.1105 39.176 78.2465 39.176L79.7825 35.768ZM118.006 36.44C116.95 36.44 116.086 35.96 115.414 35C114.742 34.072 114.406 32.936 114.406 31.592C114.406 30.408 114.646 28.952 115.126 27.224C115.638 25.464 116.23 23.944 116.902 22.664C117.606 21.352 118.182 20.696 118.63 20.696C118.822 20.696 119.094 20.792 119.446 20.984C119.83 21.176 120.15 21.4 120.406 21.656C119.734 22.712 119.03 24.232 118.294 26.216C117.558 28.168 117.19 29.864 117.19 31.304C117.19 32.04 117.302 32.76 117.526 33.464C117.782 34.168 118.246 34.52 118.918 34.52C120.038 34.52 121.254 33.496 122.566 31.448C123.91 29.368 125.35 26.744 126.886 23.576L127.654 21.992C129.19 22.28 129.958 22.696 129.958 23.24C129.958 23.304 129.878 23.528 129.718 23.912C129.59 24.264 129.462 24.584 129.334 24.872C128.598 26.504 127.974 28.04 127.462 29.48C126.982 30.888 126.742 32.088 126.742 33.08C126.742 34.36 127.27 35 128.326 35C129.03 35 129.862 34.696 130.822 34.088C131.782 33.448 132.758 32.536 133.75 31.352C134.742 30.168 135.606 28.792 136.342 27.224L136.966 27.656C136.294 29.352 135.414 30.872 134.326 32.216C133.27 33.528 132.118 34.552 130.87 35.288C129.622 36.056 128.438 36.44 127.318 36.44C125.078 36.44 123.958 35.256 123.958 32.888C123.958 32.248 124.07 31.448 124.294 30.488C123.27 32.312 122.246 33.768 121.222 34.856C120.198 35.912 119.126 36.44 118.006 36.44ZM143.757 36.248C142.669 36.248 141.805 35.96 141.165 35.384C140.557 34.808 140.253 34.056 140.253 33.128C140.253 32.04 140.717 30.472 141.645 28.424C142.061 27.368 142.365 26.536 142.557 25.928C142.781 25.288 142.893 24.696 142.893 24.152C142.893 23.352 142.701 22.728 142.317 22.28C141.965 21.8 141.565 21.416 141.117 21.128C140.669 20.808 140.365 20.6 140.205 20.504C139.501 22.296 138.749 24.056 137.949 25.784C137.149 27.48 136.477 28.792 135.933 29.72L135.501 28.904C137.037 25.928 138.333 22.888 139.389 19.784C139.069 19.464 138.909 19.08 138.909 18.632C138.909 18.056 139.021 17.512 139.245 17C139.501 16.488 139.789 16.088 140.109 15.8C140.461 15.512 140.733 15.368 140.925 15.368C141.373 15.368 141.597 15.752 141.597 16.52C141.597 16.648 141.517 16.936 141.357 17.384C141.197 17.832 141.101 18.136 141.069 18.296C141.069 18.616 141.197 18.92 141.453 19.208C141.741 19.464 142.189 19.8 142.797 20.216C143.789 20.92 144.557 21.624 145.101 22.328C145.677 23 145.965 23.88 145.965 24.968C145.965 25.672 145.853 26.376 145.629 27.08C145.405 27.752 145.069 28.648 144.621 29.768C143.917 31.304 143.565 32.408 143.565 33.08C143.565 34.04 144.045 34.52 145.005 34.52C145.965 34.52 146.989 34.136 148.077 33.368C149.197 32.6 150.221 31.656 151.149 30.536C152.077 29.384 152.749 28.328 153.165 27.368L153.789 27.848C152.797 30.056 151.357 32.008 149.469 33.704C147.581 35.4 145.677 36.248 143.757 36.248ZM154.973 36.44C154.045 36.44 153.213 36.088 152.477 35.384C151.741 34.712 151.373 33.72 151.373 32.408C151.373 30.648 152.045 28.6 153.389 26.264C154.733 23.896 156.413 21.88 158.429 20.216C160.445 18.552 162.397 17.72 164.285 17.72C165.693 17.72 166.397 18.216 166.397 19.208C166.397 19.336 166.365 19.56 166.301 19.88C165.981 19.4 165.373 19.16 164.477 19.16C162.877 19.16 161.325 19.928 159.821 21.464C158.317 22.968 157.085 24.744 156.125 26.792C155.197 28.84 154.733 30.52 154.733 31.832C154.733 32.536 154.877 33.096 155.165 33.512C155.485 33.928 155.917 34.136 156.461 34.136C157.325 34.136 158.381 33.592 159.629 32.504C160.877 31.384 162.141 29.816 163.421 27.8C164.701 25.784 165.837 23.496 166.829 20.936C169.325 14.472 171.405 9.448 173.069 5.864C174.765 2.248 176.189 0.439999 177.341 0.439999C177.597 0.439999 177.821 0.551998 178.013 0.775997C178.205 0.967999 178.301 1.224 178.301 1.544C178.301 2.024 178.045 2.856 177.533 4.04C177.021 5.192 176.189 6.984 175.037 9.416C172.669 14.344 170.781 18.616 169.373 22.232C167.965 25.816 167.261 28.952 167.261 31.64C167.261 32.696 167.309 33.416 167.405 33.8C167.533 34.152 167.853 34.328 168.365 34.328C169.037 34.328 169.821 34.04 170.717 33.464C171.645 32.856 172.557 32.024 173.453 30.968C174.349 29.88 175.117 28.632 175.757 27.224L176.333 27.656C175.725 29.256 174.893 30.712 173.837 32.024C172.781 33.336 171.645 34.36 170.429 35.096C169.245 35.864 168.109 36.248 167.021 36.248C165.933 36.248 165.133 35.896 164.621 35.192C164.109 34.488 163.853 33.64 163.853 32.648C163.853 31.56 164.157 29.848 164.765 27.512C163.133 30.2 161.437 32.36 159.677 33.992C157.949 35.624 156.381 36.44 154.973 36.44ZM178.14 36.536C176.828 36.536 175.868 36.136 175.26 35.336C174.652 34.536 174.348 33.48 174.348 32.168C174.348 30.856 174.62 29.48 175.164 28.04C175.708 26.6 176.412 25.4 177.276 24.44C178.14 23.48 179.004 23 179.868 23C180.156 23 180.492 23.08 180.876 23.24C180.492 23.56 180.028 24.264 179.484 25.352C178.94 26.44 178.46 27.608 178.044 28.856C177.66 30.072 177.468 31.064 177.468 31.832C177.468 33.656 178.044 34.568 179.196 34.568C179.868 34.568 180.668 34.216 181.596 33.512C182.524 32.808 183.436 31.88 184.332 30.728C183.436 29.992 182.732 29.032 182.22 27.848C181.74 26.664 181.5 25.432 181.5 24.152C181.5 22.488 181.916 21.064 182.748 19.88C183.612 18.696 184.764 18.104 186.204 18.104C187.42 18.104 188.268 18.44 188.748 19.112C189.26 19.752 189.516 20.648 189.516 21.8C189.516 23.016 189.212 24.392 188.604 25.928C188.028 27.432 187.26 28.904 186.3 30.344C186.876 30.664 187.484 30.824 188.124 30.824C189.052 30.824 190.012 30.552 191.004 30.008C191.996 29.432 192.748 28.552 193.26 27.368L193.836 27.848C193.228 29.256 192.364 30.296 191.244 30.968C190.124 31.64 188.972 31.976 187.788 31.976C186.924 31.976 186.156 31.816 185.484 31.496C184.332 33 183.1 34.216 181.788 35.144C180.508 36.072 179.292 36.536 178.14 36.536ZM185.196 29.48C186.028 28.232 186.7 26.968 187.212 25.688C187.724 24.376 187.98 23.176 187.98 22.088C187.98 21.192 187.836 20.52 187.548 20.072C187.292 19.624 186.956 19.4 186.54 19.4C186.092 19.4 185.628 19.624 185.148 20.072C184.7 20.488 184.316 21.08 183.996 21.848C183.708 22.584 183.564 23.4 183.564 24.296C183.564 25.288 183.692 26.248 183.948 27.176C184.236 28.072 184.652 28.84 185.196 29.48ZM197.495 37.688C195.895 37.688 194.599 37.16 193.607 36.104C192.615 35.048 192.119 33.528 192.119 31.544C192.119 29.464 192.647 27.432 193.703 25.448C194.759 23.464 196.103 21.864 197.735 20.648C199.399 19.4 201.031 18.776 202.631 18.776C203.847 18.776 204.711 19.128 205.223 19.832C205.767 20.504 206.039 21.336 206.039 22.328C206.039 23.288 205.815 24.12 205.367 24.824C204.951 25.496 204.375 25.832 203.639 25.832C203.095 25.832 202.631 25.592 202.247 25.112C202.727 24.888 203.143 24.392 203.495 23.624C203.847 22.824 204.023 22.056 204.023 21.32C204.023 20.904 203.943 20.6 203.783 20.408C203.623 20.216 203.351 20.12 202.967 20.12C201.879 20.12 200.711 20.776 199.463 22.088C198.247 23.368 197.207 24.936 196.343 26.792C195.511 28.648 195.095 30.344 195.095 31.88C195.095 33.032 195.367 33.992 195.911 34.76C196.455 35.496 197.351 35.864 198.599 35.864C200.551 35.864 202.471 35.064 204.359 33.464C206.279 31.864 207.751 29.768 208.775 27.176L209.399 27.656C208.663 29.576 207.655 31.304 206.375 32.84C205.095 34.344 203.671 35.528 202.103 36.392C200.567 37.256 199.031 37.688 197.495 37.688ZM210.131 36.824C209.555 36.824 209.075 36.328 208.691 35.336C208.339 34.344 208.163 33.176 208.163 31.832C208.163 28.888 209.059 24.92 210.851 19.928C212.675 14.936 214.739 10.488 217.043 6.584C219.347 2.68 221.171 0.727998 222.515 0.727998C223.027 0.727998 223.411 1.048 223.667 1.688C223.955 2.296 224.099 2.984 224.099 3.752C224.099 5.256 223.555 7.256 222.467 9.752C221.411 12.248 220.019 14.648 218.291 16.952C216.595 19.256 214.851 20.952 213.059 22.04C212.483 23.384 212.035 24.952 211.715 26.744C211.427 28.504 211.283 30.088 211.283 31.496C211.283 32.008 211.315 32.552 211.379 33.128C212.659 29.416 214.099 26.424 215.699 24.152C217.331 21.848 219.139 20.696 221.123 20.696C222.339 20.696 223.251 21.128 223.859 21.992C224.467 22.824 224.771 23.832 224.771 25.016C224.771 25.72 224.675 26.392 224.483 27.032C224.323 27.672 224.051 28.504 223.667 29.528C223.347 30.392 223.107 31.08 222.947 31.592C222.787 32.104 222.707 32.6 222.707 33.08C222.707 33.688 222.835 34.152 223.091 34.472C223.347 34.76 223.699 34.904 224.147 34.904C225.235 34.904 226.515 34.152 227.987 32.648C229.459 31.112 230.675 29.304 231.635 27.224L232.259 27.8C231.203 30.232 229.843 32.232 228.179 33.8C226.547 35.368 224.835 36.152 223.043 36.152C221.987 36.152 221.171 35.864 220.595 35.288C220.019 34.744 219.731 34.024 219.731 33.128C219.731 32.424 219.971 31.288 220.451 29.72C220.963 27.992 221.219 26.712 221.219 25.88C221.219 25.08 221.043 24.504 220.691 24.152C220.371 23.768 219.939 23.576 219.395 23.576C218.211 23.576 217.171 24.28 216.275 25.688C215.411 27.064 214.467 29.016 213.443 31.544C212.675 33.4 212.067 34.744 211.619 35.576C211.171 36.408 210.675 36.824 210.131 36.824ZM213.683 20.168C215.059 19.08 216.419 17.512 217.763 15.464C219.139 13.384 220.259 11.336 221.123 9.32C222.019 7.272 222.467 5.832 222.467 5C222.467 4.744 222.403 4.616 222.275 4.616C221.923 4.616 221.187 5.416 220.067 7.016C218.979 8.584 217.827 10.568 216.611 12.968C215.395 15.368 214.419 17.768 213.683 20.168Z" fill="#8A8A8A"/>
</svg>
