<svg width="120" height="41" viewBox="0 0 120 41" fill="none" xmlns="http://www.w3.org/2000/svg">
<rect x="0.5" y="0.5" width="119" height="40" rx="4.5" fill="#689A41" stroke="white"/>
<path d="M31.576 29L34.552 12.2H37.648L43.408 24.176L45.52 12.2H48.592L45.616 29H42.544L36.784 17.024L34.648 29H31.576ZM48.8729 29L51.8489 12.2H62.2409L61.7849 14.624H54.4889L53.6729 19.304H60.2489L59.8409 21.656H53.2649L52.3769 26.576H59.6969L59.2649 29H48.8729ZM61.2226 29L67.9906 20.48L64.1266 12.2H67.6786L70.3906 18.032L74.8546 12.2H78.3346L71.5906 20.624L75.5026 29H71.9506L69.1906 23.072L64.7026 29H61.2226ZM81.9651 29L84.4851 14.624H79.5891L80.0211 12.2H92.9091L92.5011 14.624H87.5571L85.0371 29H81.9651Z" fill="white"/>
</svg>
