<svg width="90" height="90" viewBox="0 0 90 90" fill="none" xmlns="http://www.w3.org/2000/svg">
<path d="M26.25 37.5C28.2391 37.5 30.1468 38.2902 31.5533 39.6967C32.9598 41.1032 33.75 43.0109 33.75 45C33.75 46.9891 32.9598 48.8968 31.5533 50.3033C30.1468 51.7098 28.2391 52.5 26.25 52.5C24.2609 52.5 22.3532 51.7098 20.9467 50.3033C19.5402 48.8968 18.75 46.9891 18.75 45C18.75 43.0109 19.5402 41.1032 20.9467 39.6967C22.3532 38.2902 24.2609 37.5 26.25 37.5ZM63.75 26.25C68.7228 26.25 73.492 28.2254 77.0083 31.7417C80.5246 35.2581 82.5 40.0272 82.5 45C82.5 49.9728 80.5246 54.7419 77.0083 58.2583C73.492 61.7746 68.7228 63.75 63.75 63.75H26.25C21.2772 63.75 16.5081 61.7746 12.9917 58.2583C9.47544 54.7419 7.5 49.9728 7.5 45C7.5 40.0272 9.47544 35.2581 12.9917 31.7417C16.5081 28.2254 21.2772 26.25 26.25 26.25H63.75ZM26.25 33.75C23.2663 33.75 20.4048 34.9353 18.2951 37.045C16.1853 39.1548 15 42.0163 15 45C15 47.9837 16.1853 50.8452 18.2951 52.955C20.4048 55.0647 23.2663 56.25 26.25 56.25H63.75C66.7337 56.25 69.5952 55.0647 71.705 52.955C73.8147 50.8452 75 47.9837 75 45C75 42.0163 73.8147 39.1548 71.705 37.045C69.5952 34.9353 66.7337 33.75 63.75 33.75H26.25Z" fill="white" fill-opacity="0.82"/>
</svg>
