<svg width="43" height="41" viewBox="0 0 43 41" fill="none" xmlns="http://www.w3.org/2000/svg">
<rect x="0.5" y="0.5" width="42" height="40" rx="4.5" fill="#689A41" stroke="white"/>
<path d="M30.2603 13.4228C29.7825 13.6041 29.2886 13.745 28.7791 13.8456L28.5081 13.8991L28.3186 13.6982C27.5611 12.8952 26.6443 12.5 25.5368 12.5C24.4801 12.5 23.5918 12.8669 22.8441 13.612C22.0965 14.3569 21.729 15.2412 21.7289 16.2927L30.2603 13.4228ZM30.2603 13.4228C29.9908 13.7468 29.6608 14.0249 29.2688 14.2588L29.5838 15.1847C29.8956 15.1478 30.2033 15.0955 30.5069 15.0278C30.2124 15.3149 29.8954 15.5805 29.5558 15.8245L29.3344 15.9837L29.3483 16.2561C29.3562 16.4096 29.3603 16.5861 29.3603 16.7862C29.3603 17.8845 29.1997 18.9865 28.8765 20.0936C28.5553 21.1943 28.0638 22.2506 27.3995 23.2632C26.7354 24.2756 25.9449 25.1717 25.0273 25.9527C24.1248 26.7208 23.0322 27.3401 21.7415 27.8053C20.4603 28.2672 19.0825 28.5 17.6042 28.5C15.9856 28.5 14.4601 28.1937 13.0238 27.58C14.7359 27.4053 16.2936 26.7726 17.6864 25.6851L18.7985 24.8169L17.3878 24.7911C16.5609 24.776 15.8292 24.5248 15.1776 24.0345L14.877 24.4341L15.1776 24.0345C14.7454 23.7093 14.4048 23.3278 14.1527 22.8873C14.1576 22.8873 14.1626 22.8873 14.1675 22.8873C14.5956 22.8873 15.0172 22.8316 15.4313 22.7204L15.3995 21.7472C14.5194 21.5715 13.7958 21.1394 13.2131 20.4382C12.7955 19.9358 12.5297 19.3822 12.4137 18.7699C12.8527 18.9168 13.3094 18.9979 13.7823 19.0126L15.5356 19.0671L14.0745 18.0964C13.5543 17.7508 13.1426 17.3016 12.8361 16.7425L12.8361 16.7425C12.5326 16.1889 12.3805 15.5912 12.3805 14.9412C12.3805 14.5043 12.4501 14.0886 12.59 13.6917C13.6086 14.7944 14.8003 15.6966 16.1626 16.397C17.7654 17.2211 19.4853 17.6785 21.317 17.7695L21.9844 17.8027L21.828 17.1531C21.7626 16.8814 21.7291 16.595 21.7289 16.2929L30.2603 13.4228Z" fill="white" stroke="white"/>
</svg>
