<svg width="760" height="53" viewBox="0 0 760 53" fill="none" xmlns="http://www.w3.org/2000/svg">
<path d="M6.42188 39.5078C6.10938 39.9609 5.55469 40.1875 4.75781 40.1875C3.97656 40.1875 3.3125 39.9688 2.76562 39.5312C2.21875 39.0938 1.76562 38.5469 1.40625 37.8906C0.6875 36.5781 0.328125 35.2656 0.328125 33.9531C0.328125 32.6406 0.46875 31.2969 0.75 29.9219C1.04688 28.5469 1.44531 27.1016 1.94531 25.5859C2.44531 24.0547 3.02344 22.4922 3.67969 20.8984C4.35156 19.3047 5.0625 17.75 5.8125 16.2344C7.34375 13.0781 8.86719 10.3438 10.3828 8.03125H10.125C8.26562 8.03125 6.53906 8.45312 4.94531 9.29688C4.55469 9.59375 4.17969 9.74219 3.82031 9.74219C3.07031 9.74219 2.34375 9.375 1.64062 8.64062C0.015625 6.92188 0.984375 5.5 4.54688 4.375C6.21875 3.82813 7.5625 3.55469 8.57812 3.55469C9.60938 3.55469 10.4375 3.71875 11.0625 4.04688C11.6875 4.35937 12.2188 4.73437 12.6562 5.17188C13.3438 5.85937 13.8281 6.53906 14.1094 7.21094C14.4062 7.88281 14.5547 8.47656 14.5547 8.99219C14.5547 9.49219 14.3984 10.1719 14.0859 11.0312C13.7891 11.875 13.4062 12.7812 12.9375 13.75L11.3438 16.8438C10.7812 17.9219 10.2188 19.0547 9.65625 20.2422C9.09375 21.4297 8.53125 22.6172 7.96875 23.8047C7.40625 24.9922 6.90625 26.1484 6.46875 27.2734C5.51562 29.7891 5.03906 31.9219 5.03906 33.6719C5.03906 34.6406 5.13281 35.4766 5.32031 36.1797L7.78125 32.0781C12.7812 24.0156 17.7188 17.9531 22.5938 13.8906C23.9688 12.7344 25.3281 11.8281 26.6719 11.1719C26.8906 11.0625 27.1484 11.0078 27.4453 11.0078C27.7422 11.0078 28.0547 11.0469 28.3828 11.125C28.7266 11.1875 29.0469 11.2891 29.3438 11.4297C30.0312 11.7578 30.375 12.1562 30.375 12.625C30.375 12.8438 30.2969 13.0469 30.1406 13.2344L29.3203 14.125C26.1953 17.4375 24.0938 22.0625 23.0156 28C22.6719 29.8281 22.5 31.2812 22.5 32.3594C22.5 33.4219 22.5312 34.1484 22.5938 34.5391C22.6562 34.9297 22.7812 35.2969 22.9688 35.6406C23.3906 36.4219 24.0234 36.8125 24.8672 36.8125C25.7109 36.8125 26.6484 36.5 27.6797 35.875C28.7109 35.25 29.75 34.3906 30.7969 33.2969C31.8594 32.2031 32.8828 30.9219 33.8672 29.4531C34.8672 27.9688 35.75 26.3828 36.5156 24.6953C38.2344 20.9609 39.0938 17.3984 39.0938 14.0078C39.0938 11.3984 38.5156 9.1875 37.3594 7.375C37.0469 6.90625 37.3516 6.29688 38.2734 5.54688C39.2109 4.76563 40.2656 4.375 41.4375 4.375C42.9844 4.375 44.0312 5.75 44.5781 8.5C44.7656 9.40625 44.8594 10.5938 44.8594 12.0625C44.8594 13.5312 44.6797 15.1484 44.3203 16.9141C43.9609 18.6797 43.4531 20.4062 42.7969 22.0938C42.1562 23.7656 41.3906 25.375 40.5 26.9219C39.625 28.4688 38.6641 29.9141 37.6172 31.2578C36.5703 32.6016 35.4609 33.8281 34.2891 34.9375C33.1172 36.0312 31.9219 36.9688 30.7031 37.75C28.1875 39.4062 25.8047 40.2344 23.5547 40.2344C21.4922 40.2344 19.9531 39.4219 18.9375 37.7969C18.0469 36.3906 17.6016 34.6016 17.6016 32.4297C17.6016 28.8359 18.2969 25.3438 19.6875 21.9531C18.3906 23.4062 17.125 24.9062 15.8906 26.4531C12.8281 30.4531 10.6953 33.3203 9.49219 35.0547L6.42188 39.5078ZM44.1094 31.7969C44.1719 30.4375 44.3984 29.1406 44.7891 27.9062C45.1797 26.6562 45.7031 25.4531 46.3594 24.2969C47.0156 23.125 47.7812 22.0234 48.6562 20.9922C49.5469 19.9453 50.5078 19.0312 51.5391 18.25C53.7734 16.5781 56.0312 15.7422 58.3125 15.7422C60.9844 15.7422 62.7656 16.8438 63.6562 19.0469C63.9688 19.7969 64.1172 20.6875 64.1016 21.7188C64.0859 22.7344 63.8906 23.6797 63.5156 24.5547C63.1406 25.4141 62.6172 26.2031 61.9453 26.9219C61.2891 27.625 60.5 28.2578 59.5781 28.8203C58.6719 29.3828 57.6797 29.8594 56.6016 30.25C54.3828 31.0312 52.0078 31.4375 49.4766 31.4688C49.4141 31.6875 49.375 32.0156 49.3594 32.4531C49.3438 32.8906 49.3906 33.3828 49.5 33.9297C49.6094 34.4609 49.7969 34.9375 50.0625 35.3594C50.625 36.2969 51.4375 36.7656 52.5 36.7656C54.3125 36.7656 56.0781 36.2344 57.7969 35.1719C58.4062 34.8125 58.8984 34.4453 59.2734 34.0703C59.6641 33.6797 60 33.4844 60.2812 33.4844C60.5625 33.4844 60.8047 33.6562 61.0078 34C61.2266 34.3281 61.3359 34.7031 61.3359 35.125C61.3359 35.9531 61.1016 36.6719 60.6328 37.2812C58.6641 39.25 55.7344 40.2344 51.8438 40.2344C49.5469 40.2344 47.7031 39.5469 46.3125 38.1719C44.75 36.6094 44.0156 34.4844 44.1094 31.7969ZM57.7969 18.8594C56.1562 18.8594 54.5781 19.9844 53.0625 22.2344C51.7812 24.1719 50.75 26.4688 49.9688 29.125C52.5781 28.8594 54.8438 27.8281 56.7656 26.0312C58.5312 24.3438 59.4141 22.7266 59.4141 21.1797C59.4141 19.6328 58.875 18.8594 57.7969 18.8594ZM81.1875 31.9141C81.2188 30.5547 81.4297 29.2031 81.8203 27.8594C82.2266 26.5 82.7578 25.2188 83.4141 24.0156C84.0859 22.8125 84.875 21.7031 85.7812 20.6875C86.7031 19.6719 87.7031 18.7969 88.7812 18.0625C91.0312 16.5156 93.3984 15.7422 95.8828 15.7422C98.4453 15.7422 100.188 16.7656 101.109 18.8125C101.438 19.5469 101.586 20.3828 101.555 21.3203C101.539 22.2422 101.391 23.0938 101.109 23.875C100.828 24.6406 100.477 25.3281 100.055 25.9375C99.1016 27.3125 98.1406 28 97.1719 28C96.0938 28 95.2969 27.7031 94.7812 27.1094C94.3281 26.5938 94.1875 25.9922 94.3594 25.3047C94.4062 25.1016 94.5469 24.9219 94.7812 24.7656C95.0156 24.5938 95.3125 24.3281 95.6719 23.9688C96.6875 22.9062 97.2188 21.6641 97.2656 20.2422C97.2969 19.2734 96.7031 18.7891 95.4844 18.7891C94.1719 18.7891 92.7969 19.5234 91.3594 20.9922C89.2656 23.1328 87.7891 25.875 86.9297 29.2188C86.1797 32.125 86.3203 34.25 87.3516 35.5938C87.9609 36.375 88.7891 36.7656 89.8359 36.7656C91.6016 36.7656 93.3047 36.1406 94.9453 34.8906C95.4453 34.5 95.8516 34.1016 96.1641 33.6953C96.4766 33.2891 96.7656 33.0859 97.0312 33.0859C97.2969 33.0859 97.5156 33.2188 97.6875 33.4844C97.875 33.7344 97.9688 34.0625 97.9688 34.4688C97.9688 35.3906 97.5547 36.2969 96.7266 37.1875C94.6016 39.2188 92.0469 40.2344 89.0625 40.2344C86.5156 40.2344 84.5469 39.5078 83.1562 38.0547C81.7812 36.6172 81.125 34.5703 81.1875 31.9141ZM121.734 33.7656C121.734 35.2031 122.242 35.9219 123.258 35.9219C123.961 35.9219 124.539 35.8125 124.992 35.5938C125.461 35.375 125.773 35.2656 125.93 35.2656C126.258 35.2656 126.422 35.4375 126.422 35.7812C126.422 37.125 125.719 38.2812 124.312 39.25C122.828 40.2656 121.312 40.5156 119.766 40C118.75 39.6406 118 38.8672 117.516 37.6797C117.281 37.0703 117.164 36.5156 117.164 36.0156C117.164 35.2031 117.242 34.3438 117.398 33.4375C115.945 36.4062 114.141 38.4531 111.984 39.5781C111.125 40.0156 110.211 40.2344 109.242 40.2344C108.273 40.2344 107.43 40.0391 106.711 39.6484C106.008 39.2422 105.406 38.6875 104.906 37.9844C103.891 36.5156 103.43 34.6719 103.523 32.4531C103.617 29.6719 104.438 26.9453 105.984 24.2734C107.406 21.7734 109.203 19.7344 111.375 18.1562C113.547 16.5469 115.578 15.7422 117.469 15.7422C119.359 15.7422 120.883 16.6094 122.039 18.3438C123.117 16.6094 124.07 15.7422 124.898 15.7422C125.789 15.7422 126.461 15.9062 126.914 16.2344C127.773 16.8594 128.078 17.4062 127.828 17.875C123.906 25.9062 121.891 30.9062 121.781 32.875C121.75 33.1562 121.734 33.4531 121.734 33.7656ZM108.727 33.8594C108.727 35.7344 109.328 36.6719 110.531 36.6719C111.453 36.6719 112.586 35.8906 113.93 34.3281C115.898 32.0312 117.641 28.9375 119.156 25.0469C119.641 23.8281 120.047 22.6094 120.375 21.3906C120.312 20.3281 119.867 19.5469 119.039 19.0469C118.758 18.875 118.336 18.7891 117.773 18.7891C117.227 18.7891 116.578 18.9922 115.828 19.3984C115.094 19.8047 114.375 20.3594 113.672 21.0625C112.984 21.7656 112.336 22.6016 111.727 23.5703C111.133 24.5234 110.609 25.5625 110.156 26.6875C109.203 29.0938 108.727 31.4844 108.727 33.8594ZM146.555 20.1719C146.07 20.1719 145.383 20.6406 144.492 21.5781C143.602 22.5 142.828 23.3438 142.172 24.1094L140.18 26.5L136.336 31.3984C135.43 33.1172 134.719 34.5469 134.203 35.6875L132.938 38.4062C132.609 39.0781 132.32 39.5547 132.07 39.8359C131.836 40.1016 131.508 40.2344 131.086 40.2344C130.68 40.2344 130.281 40.1562 129.891 40C129.516 39.8594 129.188 39.6719 128.906 39.4375C128.312 38.9375 128.016 38.3906 128.016 37.7969C128.016 37.5625 128.188 37.1016 128.531 36.4141L129.422 34.5156C129.703 33.9531 130.031 33.2344 130.406 32.3594L131.719 29.1484C133.562 24.5391 134.484 21.5625 134.484 20.2188C134.484 19.5 134.25 18.9688 133.781 18.625L133.312 18.2969C133.156 18.1875 133.078 18 133.078 17.7344C133.078 17.4531 133.18 17.1875 133.383 16.9375C133.602 16.6875 133.883 16.4688 134.227 16.2812C134.93 15.9219 135.633 15.7422 136.336 15.7422C137.055 15.7422 137.609 15.8203 138 15.9766C138.391 16.1328 138.719 16.3438 138.984 16.6094C139.562 17.1562 139.852 17.7266 139.852 18.3203C139.852 18.9141 139.773 19.5156 139.617 20.125C139.477 20.7188 139.289 21.3281 139.055 21.9531C138.836 22.5625 138.602 23.1641 138.352 23.7578C138.102 24.3516 137.875 24.8672 137.672 25.3047L137.203 26.3125C137.078 26.5625 137.047 26.6406 137.109 26.5469C138.844 24.1406 139.984 22.5938 140.531 21.9062L142.172 19.9375C143.375 18.5312 144.32 17.6016 145.008 17.1484C146.398 16.2109 147.492 15.7422 148.289 15.7422C149.086 15.7422 149.758 15.8438 150.305 16.0469C150.852 16.25 151.328 16.5391 151.734 16.9141C152.594 17.7109 153.023 18.7266 153.023 19.9609C153.023 21.1953 152.742 22.4844 152.18 23.8281C151.617 25.1719 151.125 26.2656 150.703 27.1094C150.297 27.9375 149.906 28.7812 149.531 29.6406C148.359 32.25 147.773 34.1484 147.773 35.3359C147.773 35.8672 148.195 36.1328 149.039 36.1328C149.695 36.1328 150.289 35.9922 150.82 35.7109C151.367 35.4297 151.719 35.2891 151.875 35.2891C152.203 35.2891 152.367 35.4531 152.367 35.7812C152.367 37.1719 151.656 38.3359 150.234 39.2734C149.281 39.9141 148.406 40.2344 147.609 40.2344C146.812 40.2344 146.148 40.1484 145.617 39.9766C145.102 39.8047 144.641 39.5312 144.234 39.1562C143.312 38.3281 142.852 37.1719 142.852 35.6875C142.852 33.875 143.422 31.6094 144.562 28.8906C145.391 27.0312 145.977 25.7578 146.32 25.0703L147.117 23.4062C147.602 22.4062 147.844 21.6172 147.844 21.0391C147.844 20.4609 147.414 20.1719 146.555 20.1719ZM173.555 38.4062C172.898 37.7812 172.383 36.9922 172.008 36.0391C171.633 35.0703 171.438 33.9297 171.422 32.6172C171.406 31.3047 171.562 29.9766 171.891 28.6328C172.234 27.2891 172.711 25.9922 173.32 24.7422C173.945 23.4922 174.688 22.3203 175.547 21.2266C176.422 20.1328 177.383 19.1797 178.43 18.3672C180.711 16.6172 183.078 15.7422 185.531 15.7422C188.75 15.7422 190.93 17.1562 192.07 19.9844C192.883 22.0312 192.93 24.5078 192.211 27.4141C191.555 30.0859 190.352 32.5391 188.602 34.7734C186.867 37.0078 184.82 38.5938 182.461 39.5312C181.273 40 180.102 40.2344 178.945 40.2344C177.805 40.2344 176.781 40.0859 175.875 39.7891C174.984 39.4922 174.211 39.0312 173.555 38.4062ZM178.031 27.0391C177.562 28.1953 177.188 29.3828 176.906 30.6016C176.641 31.8203 176.516 32.9766 176.531 34.0703C176.547 35.1484 176.711 36 177.023 36.625C177.352 37.2344 177.875 37.5391 178.594 37.5391C179.312 37.5391 180.016 37.2969 180.703 36.8125C181.406 36.3125 182.086 35.6562 182.742 34.8438C183.398 34.0312 184.016 33.0938 184.594 32.0312C185.172 30.9688 185.68 29.8594 186.117 28.7031C187.07 26.1875 187.531 23.9531 187.5 22C187.5 20.2812 187.148 19.1875 186.445 18.7188C186.164 18.5312 185.766 18.4375 185.25 18.4375C184.75 18.4375 184.172 18.6719 183.516 19.1406C182.859 19.5938 182.203 20.2109 181.547 20.9922C180.891 21.7734 180.258 22.6875 179.648 23.7344C179.039 24.7812 178.5 25.8828 178.031 27.0391ZM212.977 20.1719C212.492 20.1719 211.805 20.6406 210.914 21.5781C210.023 22.5 209.25 23.3438 208.594 24.1094L206.602 26.5L202.758 31.3984C201.852 33.1172 201.141 34.5469 200.625 35.6875L199.359 38.4062C199.031 39.0781 198.742 39.5547 198.492 39.8359C198.258 40.1016 197.93 40.2344 197.508 40.2344C197.102 40.2344 196.703 40.1562 196.312 40C195.938 39.8594 195.609 39.6719 195.328 39.4375C194.734 38.9375 194.438 38.3906 194.438 37.7969C194.438 37.5625 194.609 37.1016 194.953 36.4141L195.844 34.5156C196.125 33.9531 196.453 33.2344 196.828 32.3594L198.141 29.1484C199.984 24.5391 200.906 21.5625 200.906 20.2188C200.906 19.5 200.672 18.9688 200.203 18.625L199.734 18.2969C199.578 18.1875 199.5 18 199.5 17.7344C199.5 17.4531 199.602 17.1875 199.805 16.9375C200.023 16.6875 200.305 16.4688 200.648 16.2812C201.352 15.9219 202.055 15.7422 202.758 15.7422C203.477 15.7422 204.031 15.8203 204.422 15.9766C204.812 16.1328 205.141 16.3438 205.406 16.6094C205.984 17.1562 206.273 17.7266 206.273 18.3203C206.273 18.9141 206.195 19.5156 206.039 20.125C205.898 20.7188 205.711 21.3281 205.477 21.9531C205.258 22.5625 205.023 23.1641 204.773 23.7578C204.523 24.3516 204.297 24.8672 204.094 25.3047L203.625 26.3125C203.5 26.5625 203.469 26.6406 203.531 26.5469C205.266 24.1406 206.406 22.5938 206.953 21.9062L208.594 19.9375C209.797 18.5312 210.742 17.6016 211.43 17.1484C212.82 16.2109 213.914 15.7422 214.711 15.7422C215.508 15.7422 216.18 15.8438 216.727 16.0469C217.273 16.25 217.75 16.5391 218.156 16.9141C219.016 17.7109 219.445 18.7266 219.445 19.9609C219.445 21.1953 219.164 22.4844 218.602 23.8281C218.039 25.1719 217.547 26.2656 217.125 27.1094C216.719 27.9375 216.328 28.7812 215.953 29.6406C214.781 32.25 214.195 34.1484 214.195 35.3359C214.195 35.8672 214.617 36.1328 215.461 36.1328C216.117 36.1328 216.711 35.9922 217.242 35.7109C217.789 35.4297 218.141 35.2891 218.297 35.2891C218.625 35.2891 218.789 35.4531 218.789 35.7812C218.789 37.1719 218.078 38.3359 216.656 39.2734C215.703 39.9141 214.828 40.2344 214.031 40.2344C213.234 40.2344 212.57 40.1484 212.039 39.9766C211.523 39.8047 211.062 39.5312 210.656 39.1562C209.734 38.3281 209.273 37.1719 209.273 35.6875C209.273 33.875 209.844 31.6094 210.984 28.8906C211.812 27.0312 212.398 25.7578 212.742 25.0703L213.539 23.4062C214.023 22.4062 214.266 21.6172 214.266 21.0391C214.266 20.4609 213.836 20.1719 212.977 20.1719ZM224.18 39.0625C223.789 38.6562 223.469 38.1406 223.219 37.5156C222.984 36.875 222.867 36.1406 222.867 35.3125C222.867 34.4688 223.055 33.3438 223.43 31.9375C223.82 30.5312 224.312 28.9297 224.906 27.1328L226.875 21.2969C229.672 13.1719 231.289 6.89062 231.727 2.45312C231.867 1.14062 232.508 0.484375 233.648 0.484375C234.367 0.484375 234.961 0.65625 235.43 1C236.336 1.6875 236.773 2.45312 236.742 3.29688C236.711 4.14062 236.562 5.17188 236.297 6.39062C236.031 7.59375 235.688 8.91406 235.266 10.3516C234.844 11.7734 234.359 13.2812 233.812 14.875L230.578 24.3906C228.719 29.7969 227.789 33.2891 227.789 34.8672C227.789 35.7109 228.133 36.1328 228.82 36.1328C229.477 36.1328 230.07 35.9922 230.602 35.7109C231.148 35.4297 231.5 35.2891 231.656 35.2891C231.984 35.2891 232.148 35.4531 232.148 35.7812C232.148 37.1719 231.438 38.3359 230.016 39.2734C229.062 39.9141 228.188 40.2344 227.391 40.2344C226.609 40.2344 225.977 40.1406 225.492 39.9531C225.008 39.7656 224.57 39.4688 224.18 39.0625ZM236.391 37.7266C236.203 37.2109 236.109 36.625 236.109 35.9688C236.109 35.2969 236.219 34.5547 236.438 33.7422C236.672 32.9141 236.969 32.0547 237.328 31.1641C237.688 30.2734 238.078 29.3594 238.5 28.4219L239.766 25.6094C241.391 22 241.992 19.8594 241.57 19.1875C241.383 18.8906 241.031 18.5938 240.516 18.2969C240.328 18.1875 240.234 18 240.234 17.7344C240.234 17.4531 240.344 17.1875 240.562 16.9375C240.797 16.6875 241.094 16.4688 241.453 16.2812C242.219 15.9219 242.984 15.7422 243.75 15.7422C244.516 15.7422 245.094 15.8281 245.484 16C245.891 16.1562 246.219 16.3594 246.469 16.6094C246.984 17.125 247.242 17.6953 247.242 18.3203C247.242 18.9453 247.141 19.6484 246.938 20.4297C246.734 21.1953 246.469 22.0312 246.141 22.9375C245.812 23.8438 245.453 24.7812 245.062 25.75C243.984 28.2812 243.258 29.9531 242.883 30.7656L242.016 32.5703C241.531 33.6484 241.289 34.4062 241.289 34.8438C241.289 35.2812 241.359 35.5938 241.5 35.7812C241.641 35.9531 241.891 36.0391 242.25 36.0391C242.625 36.0391 243.031 35.8984 243.469 35.6172C243.922 35.3359 244.406 34.9609 244.922 34.4922C245.438 34.0234 245.969 33.4844 246.516 32.875C247.078 32.25 247.625 31.6016 248.156 30.9297C249.547 29.2109 250.578 27.7344 251.25 26.5C254.625 20.2812 256.414 17.0312 256.617 16.75C257.133 16.0781 257.648 15.7422 258.164 15.7422C258.695 15.7422 259.156 15.8047 259.547 15.9297C259.938 16.0391 260.273 16.2031 260.555 16.4219C261.18 16.875 261.367 17.3828 261.117 17.9453C260.883 18.5078 260.594 19.2812 260.25 20.2656C257.281 28.875 255.352 34.2422 254.461 36.3672C253.586 38.4922 252.82 40.1953 252.164 41.4766C251.508 42.7734 250.734 44.0781 249.844 45.3906C248.969 46.7031 248.031 47.8984 247.031 48.9766C244.75 51.4141 242.609 52.7188 240.609 52.8906C239.844 52.9531 239.234 52.8438 238.781 52.5625C238 52.0938 237.609 51.6484 237.609 51.2266C237.609 50.8047 237.961 50.5078 238.664 50.3359C239.383 50.1797 240.117 49.8516 240.867 49.3516C241.633 48.8672 242.367 48.2969 243.07 47.6406C245.133 45.6719 246.734 43.5312 247.875 41.2188C248.844 39.1875 249.625 37.2656 250.219 35.4531L252.047 29.875C251.594 30.4219 251.094 31.0625 250.547 31.7969L248.859 34.0469C247.391 35.9062 246.172 37.2266 245.203 38.0078C243.359 39.4922 241.711 40.2344 240.258 40.2344C238.32 40.2344 237.031 39.3984 236.391 37.7266ZM278.742 39.0625C278.352 38.6562 278.031 38.1406 277.781 37.5156C277.547 36.875 277.43 36.1406 277.43 35.3125C277.43 34.4688 277.617 33.3438 277.992 31.9375C278.383 30.5312 278.875 28.9297 279.469 27.1328L281.438 21.2969C284.234 13.1719 285.852 6.89062 286.289 2.45312C286.43 1.14062 287.07 0.484375 288.211 0.484375C288.93 0.484375 289.523 0.65625 289.992 1C290.898 1.6875 291.336 2.45312 291.305 3.29688C291.273 4.14062 291.125 5.17188 290.859 6.39062C290.594 7.59375 290.25 8.91406 289.828 10.3516C289.406 11.7734 288.922 13.2812 288.375 14.875L285.141 24.3906C283.281 29.7969 282.352 33.2891 282.352 34.8672C282.352 35.7109 282.695 36.1328 283.383 36.1328C284.039 36.1328 284.633 35.9922 285.164 35.7109C285.711 35.4297 286.062 35.2891 286.219 35.2891C286.547 35.2891 286.711 35.4531 286.711 35.7812C286.711 37.1719 286 38.3359 284.578 39.2734C283.625 39.9141 282.75 40.2344 281.953 40.2344C281.172 40.2344 280.539 40.1406 280.055 39.9531C279.57 39.7656 279.133 39.4688 278.742 39.0625ZM291.234 31.7969C291.297 30.4375 291.523 29.1406 291.914 27.9062C292.305 26.6562 292.828 25.4531 293.484 24.2969C294.141 23.125 294.906 22.0234 295.781 20.9922C296.672 19.9453 297.633 19.0312 298.664 18.25C300.898 16.5781 303.156 15.7422 305.438 15.7422C308.109 15.7422 309.891 16.8438 310.781 19.0469C311.094 19.7969 311.242 20.6875 311.227 21.7188C311.211 22.7344 311.016 23.6797 310.641 24.5547C310.266 25.4141 309.742 26.2031 309.07 26.9219C308.414 27.625 307.625 28.2578 306.703 28.8203C305.797 29.3828 304.805 29.8594 303.727 30.25C301.508 31.0312 299.133 31.4375 296.602 31.4688C296.539 31.6875 296.5 32.0156 296.484 32.4531C296.469 32.8906 296.516 33.3828 296.625 33.9297C296.734 34.4609 296.922 34.9375 297.188 35.3594C297.75 36.2969 298.562 36.7656 299.625 36.7656C301.438 36.7656 303.203 36.2344 304.922 35.1719C305.531 34.8125 306.023 34.4453 306.398 34.0703C306.789 33.6797 307.125 33.4844 307.406 33.4844C307.688 33.4844 307.93 33.6562 308.133 34C308.352 34.3281 308.461 34.7031 308.461 35.125C308.461 35.9531 308.227 36.6719 307.758 37.2812C305.789 39.25 302.859 40.2344 298.969 40.2344C296.672 40.2344 294.828 39.5469 293.438 38.1719C291.875 36.6094 291.141 34.4844 291.234 31.7969ZM304.922 18.8594C303.281 18.8594 301.703 19.9844 300.188 22.2344C298.906 24.1719 297.875 26.4688 297.094 29.125C299.703 28.8594 301.969 27.8281 303.891 26.0312C305.656 24.3438 306.539 22.7266 306.539 21.1797C306.539 19.6328 306 18.8594 304.922 18.8594ZM331.734 33.7656C331.734 35.2031 332.242 35.9219 333.258 35.9219C333.961 35.9219 334.539 35.8125 334.992 35.5938C335.461 35.375 335.773 35.2656 335.93 35.2656C336.258 35.2656 336.422 35.4375 336.422 35.7812C336.422 37.125 335.719 38.2812 334.312 39.25C332.828 40.2656 331.312 40.5156 329.766 40C328.75 39.6406 328 38.8672 327.516 37.6797C327.281 37.0703 327.164 36.5156 327.164 36.0156C327.164 35.2031 327.242 34.3438 327.398 33.4375C325.945 36.4062 324.141 38.4531 321.984 39.5781C321.125 40.0156 320.211 40.2344 319.242 40.2344C318.273 40.2344 317.43 40.0391 316.711 39.6484C316.008 39.2422 315.406 38.6875 314.906 37.9844C313.891 36.5156 313.43 34.6719 313.523 32.4531C313.617 29.6719 314.438 26.9453 315.984 24.2734C317.406 21.7734 319.203 19.7344 321.375 18.1562C323.547 16.5469 325.578 15.7422 327.469 15.7422C329.359 15.7422 330.883 16.6094 332.039 18.3438C333.117 16.6094 334.07 15.7422 334.898 15.7422C335.789 15.7422 336.461 15.9062 336.914 16.2344C337.773 16.8594 338.078 17.4062 337.828 17.875C333.906 25.9062 331.891 30.9062 331.781 32.875C331.75 33.1562 331.734 33.4531 331.734 33.7656ZM318.727 33.8594C318.727 35.7344 319.328 36.6719 320.531 36.6719C321.453 36.6719 322.586 35.8906 323.93 34.3281C325.898 32.0312 327.641 28.9375 329.156 25.0469C329.641 23.8281 330.047 22.6094 330.375 21.3906C330.312 20.3281 329.867 19.5469 329.039 19.0469C328.758 18.875 328.336 18.7891 327.773 18.7891C327.227 18.7891 326.578 18.9922 325.828 19.3984C325.094 19.8047 324.375 20.3594 323.672 21.0625C322.984 21.7656 322.336 22.6016 321.727 23.5703C321.133 24.5234 320.609 25.5625 320.156 26.6875C319.203 29.0938 318.727 31.4844 318.727 33.8594ZM339.75 39.4375C339.438 39.2031 339.188 38.9453 339 38.6641C338.812 38.3672 338.711 38.1172 338.695 37.9141C338.68 37.6953 338.719 37.4375 338.812 37.1406C338.922 36.8281 339.062 36.4531 339.234 36.0156C342.422 28.1719 344.016 22.9062 344.016 20.2188C343.969 19.4688 343.711 18.9375 343.242 18.625L342.773 18.2969C342.633 18.1875 342.555 18 342.539 17.7344C342.539 17.4531 342.641 17.1875 342.844 16.9375C343.047 16.6875 343.312 16.4688 343.641 16.2812C344.312 15.9219 345 15.7422 345.703 15.7422C346.422 15.7422 346.977 15.8203 347.367 15.9766C347.773 16.1328 348.117 16.3438 348.398 16.6094C348.992 17.1719 349.289 17.7656 349.289 18.3906C349.305 19.0156 349.234 19.6484 349.078 20.2891C348.938 20.9297 348.766 21.5625 348.562 22.1875C348.359 22.7969 348.156 23.3828 347.953 23.9453C347.75 24.4922 347.617 24.8984 347.555 25.1641C347.43 25.7109 347.383 26.0547 347.414 26.1953C347.789 25.8672 348.016 25.5469 348.094 25.2344L349.008 23.5C351.039 19.8438 353.023 17.4219 354.961 16.2344C355.523 15.9062 356.195 15.7422 356.977 15.7422C357.773 15.7422 358.414 16.0234 358.898 16.5859C359.383 17.1328 359.633 17.7422 359.648 18.4141C359.68 19.0859 359.633 19.6484 359.508 20.1016C359.398 20.5391 359.227 20.9531 358.992 21.3438C358.477 22.2188 357.852 22.6562 357.117 22.6562C356.914 22.6562 356.727 22.5859 356.555 22.4453L356.039 22C355.523 21.5469 355.023 21.3203 354.539 21.3203C354.07 21.3203 353.492 21.6328 352.805 22.2578C352.133 22.8828 351.43 23.6875 350.695 24.6719C348.227 27.9375 346.211 31.5938 344.648 35.6406L343.617 38.3594C343.352 39.0312 343.117 39.5156 342.914 39.8125C342.711 40.0938 342.406 40.2344 342 40.2344C341.609 40.2344 341.211 40.1562 340.805 40C340.414 39.8594 340.062 39.6719 339.75 39.4375ZM376.148 20.1719C375.664 20.1719 374.977 20.6406 374.086 21.5781C373.195 22.5 372.422 23.3438 371.766 24.1094L369.773 26.5L365.93 31.3984C365.023 33.1172 364.312 34.5469 363.797 35.6875L362.531 38.4062C362.203 39.0781 361.914 39.5547 361.664 39.8359C361.43 40.1016 361.102 40.2344 360.68 40.2344C360.273 40.2344 359.875 40.1562 359.484 40C359.109 39.8594 358.781 39.6719 358.5 39.4375C357.906 38.9375 357.609 38.3906 357.609 37.7969C357.609 37.5625 357.781 37.1016 358.125 36.4141L359.016 34.5156C359.297 33.9531 359.625 33.2344 360 32.3594L361.312 29.1484C363.156 24.5391 364.078 21.5625 364.078 20.2188C364.078 19.5 363.844 18.9688 363.375 18.625L362.906 18.2969C362.75 18.1875 362.672 18 362.672 17.7344C362.672 17.4531 362.773 17.1875 362.977 16.9375C363.195 16.6875 363.477 16.4688 363.82 16.2812C364.523 15.9219 365.227 15.7422 365.93 15.7422C366.648 15.7422 367.203 15.8203 367.594 15.9766C367.984 16.1328 368.312 16.3438 368.578 16.6094C369.156 17.1562 369.445 17.7266 369.445 18.3203C369.445 18.9141 369.367 19.5156 369.211 20.125C369.07 20.7188 368.883 21.3281 368.648 21.9531C368.43 22.5625 368.195 23.1641 367.945 23.7578C367.695 24.3516 367.469 24.8672 367.266 25.3047L366.797 26.3125C366.672 26.5625 366.641 26.6406 366.703 26.5469C368.438 24.1406 369.578 22.5938 370.125 21.9062L371.766 19.9375C372.969 18.5312 373.914 17.6016 374.602 17.1484C375.992 16.2109 377.086 15.7422 377.883 15.7422C378.68 15.7422 379.352 15.8438 379.898 16.0469C380.445 16.25 380.922 16.5391 381.328 16.9141C382.188 17.7109 382.617 18.7266 382.617 19.9609C382.617 21.1953 382.336 22.4844 381.773 23.8281C381.211 25.1719 380.719 26.2656 380.297 27.1094C379.891 27.9375 379.5 28.7812 379.125 29.6406C377.953 32.25 377.367 34.1484 377.367 35.3359C377.367 35.8672 377.789 36.1328 378.633 36.1328C379.289 36.1328 379.883 35.9922 380.414 35.7109C380.961 35.4297 381.312 35.2891 381.469 35.2891C381.797 35.2891 381.961 35.4531 381.961 35.7812C381.961 37.1719 381.25 38.3359 379.828 39.2734C378.875 39.9141 378 40.2344 377.203 40.2344C376.406 40.2344 375.742 40.1484 375.211 39.9766C374.695 39.8047 374.234 39.5312 373.828 39.1562C372.906 38.3281 372.445 37.1719 372.445 35.6875C372.445 33.875 373.016 31.6094 374.156 28.8906C374.984 27.0312 375.57 25.7578 375.914 25.0703L376.711 23.4062C377.195 22.4062 377.438 21.6172 377.438 21.0391C377.438 20.4609 377.008 20.1719 376.148 20.1719ZM414.609 33.8594C415.062 33.8594 415.289 34.1641 415.289 34.7734C415.289 35.2891 415.133 35.7891 414.82 36.2734C414.398 37.1797 413.555 38.0391 412.289 38.8516C410.852 39.7734 409.406 40.2344 407.953 40.2344C405.438 40.2344 403.844 39.1094 403.172 36.8594C402.375 34.1875 403.57 28.5234 406.758 19.8672C404.961 19.7109 403.984 19.3984 403.828 18.9297C403.781 18.7891 403.758 18.6406 403.758 18.4844C403.758 18.3125 403.828 18.1172 403.969 17.8984C404.125 17.6797 404.32 17.4688 404.555 17.2656C405.102 16.8125 405.656 16.5859 406.219 16.5859H408.07C409.758 12.6328 410.961 10.3828 411.68 9.83594C412.023 9.58594 412.406 9.46094 412.828 9.46094C413.25 9.46094 413.602 9.51562 413.883 9.625C414.164 9.73438 414.414 9.89062 414.633 10.0938C415.133 10.5625 415.383 11.0859 415.383 11.6641C415.383 11.9766 415.289 12.3359 415.102 12.7422L413.367 16.5156H413.93C414.898 16.5156 415.68 16.5078 416.273 16.4922C416.273 16.4922 416.719 16.4844 417.609 16.4688C417.906 16.4531 418.273 16.4453 418.711 16.4453C419.164 16.4453 419.391 16.6094 419.391 16.9375C419.391 19 416.953 20.0312 412.078 20.0312H411.891L410.297 24.1562C408.5 29.0312 407.602 32.4453 407.602 34.3984C407.602 34.9453 407.727 35.375 407.977 35.6875C408.227 35.9844 408.695 36.1328 409.383 36.1328C410.07 36.1328 410.695 36.0156 411.258 35.7812C411.82 35.5469 412.312 35.2891 412.734 35.0078C413.156 34.7109 413.516 34.4453 413.812 34.2109C414.125 33.9766 414.391 33.8594 414.609 33.8594ZM420.398 38.4062C419.742 37.7812 419.227 36.9922 418.852 36.0391C418.477 35.0703 418.281 33.9297 418.266 32.6172C418.25 31.3047 418.406 29.9766 418.734 28.6328C419.078 27.2891 419.555 25.9922 420.164 24.7422C420.789 23.4922 421.531 22.3203 422.391 21.2266C423.266 20.1328 424.227 19.1797 425.273 18.3672C427.555 16.6172 429.922 15.7422 432.375 15.7422C435.594 15.7422 437.773 17.1562 438.914 19.9844C439.727 22.0312 439.773 24.5078 439.055 27.4141C438.398 30.0859 437.195 32.5391 435.445 34.7734C433.711 37.0078 431.664 38.5938 429.305 39.5312C428.117 40 426.945 40.2344 425.789 40.2344C424.648 40.2344 423.625 40.0859 422.719 39.7891C421.828 39.4922 421.055 39.0312 420.398 38.4062ZM424.875 27.0391C424.406 28.1953 424.031 29.3828 423.75 30.6016C423.484 31.8203 423.359 32.9766 423.375 34.0703C423.391 35.1484 423.555 36 423.867 36.625C424.195 37.2344 424.719 37.5391 425.438 37.5391C426.156 37.5391 426.859 37.2969 427.547 36.8125C428.25 36.3125 428.93 35.6562 429.586 34.8438C430.242 34.0312 430.859 33.0938 431.438 32.0312C432.016 30.9688 432.523 29.8594 432.961 28.7031C433.914 26.1875 434.375 23.9531 434.344 22C434.344 20.2812 433.992 19.1875 433.289 18.7188C433.008 18.5312 432.609 18.4375 432.094 18.4375C431.594 18.4375 431.016 18.6719 430.359 19.1406C429.703 19.5938 429.047 20.2109 428.391 20.9922C427.734 21.7734 427.102 22.6875 426.492 23.7344C425.883 24.7812 425.344 25.8828 424.875 27.0391ZM458.836 39.0625C458.445 38.6562 458.125 38.1406 457.875 37.5156C457.641 36.875 457.523 36.1406 457.523 35.3125C457.523 34.4688 457.711 33.3438 458.086 31.9375C458.477 30.5312 458.969 28.9297 459.562 27.1328L461.531 21.2969C464.328 13.1719 465.945 6.89062 466.383 2.45312C466.523 1.14062 467.164 0.484375 468.305 0.484375C469.023 0.484375 469.617 0.65625 470.086 1C470.992 1.6875 471.43 2.45312 471.398 3.29688C471.367 4.14062 471.219 5.17188 470.953 6.39062C470.688 7.59375 470.344 8.91406 469.922 10.3516C469.5 11.7734 469.016 13.2812 468.469 14.875L465.234 24.3906C463.375 29.7969 462.445 33.2891 462.445 34.8672C462.445 35.7109 462.789 36.1328 463.477 36.1328C464.133 36.1328 464.727 35.9922 465.258 35.7109C465.805 35.4297 466.156 35.2891 466.312 35.2891C466.641 35.2891 466.805 35.4531 466.805 35.7812C466.805 37.1719 466.094 38.3359 464.672 39.2734C463.719 39.9141 462.844 40.2344 462.047 40.2344C461.266 40.2344 460.633 40.1406 460.148 39.9531C459.664 39.7656 459.227 39.4688 458.836 39.0625ZM473.273 38.4062C472.617 37.7812 472.102 36.9922 471.727 36.0391C471.352 35.0703 471.156 33.9297 471.141 32.6172C471.125 31.3047 471.281 29.9766 471.609 28.6328C471.953 27.2891 472.43 25.9922 473.039 24.7422C473.664 23.4922 474.406 22.3203 475.266 21.2266C476.141 20.1328 477.102 19.1797 478.148 18.3672C480.43 16.6172 482.797 15.7422 485.25 15.7422C488.469 15.7422 490.648 17.1562 491.789 19.9844C492.602 22.0312 492.648 24.5078 491.93 27.4141C491.273 30.0859 490.07 32.5391 488.32 34.7734C486.586 37.0078 484.539 38.5938 482.18 39.5312C480.992 40 479.82 40.2344 478.664 40.2344C477.523 40.2344 476.5 40.0859 475.594 39.7891C474.703 39.4922 473.93 39.0312 473.273 38.4062ZM477.75 27.0391C477.281 28.1953 476.906 29.3828 476.625 30.6016C476.359 31.8203 476.234 32.9766 476.25 34.0703C476.266 35.1484 476.43 36 476.742 36.625C477.07 37.2344 477.594 37.5391 478.312 37.5391C479.031 37.5391 479.734 37.2969 480.422 36.8125C481.125 36.3125 481.805 35.6562 482.461 34.8438C483.117 34.0312 483.734 33.0938 484.312 32.0312C484.891 30.9688 485.398 29.8594 485.836 28.7031C486.789 26.1875 487.25 23.9531 487.219 22C487.219 20.2812 486.867 19.1875 486.164 18.7188C485.883 18.5312 485.484 18.4375 484.969 18.4375C484.469 18.4375 483.891 18.6719 483.234 19.1406C482.578 19.5938 481.922 20.2109 481.266 20.9922C480.609 21.7734 479.977 22.6875 479.367 23.7344C478.758 24.7812 478.219 25.8828 477.75 27.0391ZM495.891 37.7266C495.656 37.2109 495.539 36.6016 495.539 35.8984C495.539 35.1953 495.648 34.4219 495.867 33.5781C496.086 32.7188 496.367 31.8438 496.711 30.9531C497.055 30.0625 497.438 29.1562 497.859 28.2344L499.055 25.5156C500.602 21.9375 501.172 19.8281 500.766 19.1875C500.578 18.8906 500.219 18.5938 499.688 18.2969C499.516 18.1875 499.43 18 499.43 17.7344C499.43 17.4531 499.539 17.1875 499.758 16.9375C499.992 16.6875 500.297 16.4688 500.672 16.2812C501.422 15.9219 502.18 15.7422 502.945 15.7422C503.711 15.7422 504.289 15.8281 504.68 16C505.086 16.1562 505.422 16.3594 505.688 16.6094C506.188 17.125 506.438 17.75 506.438 18.4844C506.438 19.2188 506.297 20.0469 506.016 20.9688C505.734 21.8906 505.383 22.8594 504.961 23.875C504.539 24.8906 504.078 25.9297 503.578 26.9922L502.195 30.0625C501.211 32.3281 500.719 33.8281 500.719 34.5625C500.719 36 501.227 36.7188 502.242 36.7188C504.852 36.7188 507.297 35.1719 509.578 32.0781C510.906 30.2812 511.859 28.3281 512.438 26.2188C512.703 25.2188 512.836 24.3125 512.836 23.5C512.836 22.6719 512.805 21.9844 512.742 21.4375C512.695 20.8906 512.609 20.4062 512.484 19.9844C512.281 19.2344 511.938 18.5859 511.453 18.0391C511.125 17.6328 511.273 17.1562 511.898 16.6094C512.586 16.0312 513.562 15.7422 514.828 15.7422C515.609 15.7422 516.297 16.1094 516.891 16.8438C517.641 17.7188 518.016 18.9766 518.016 20.6172C518.016 22.2422 517.773 23.8438 517.289 25.4219C516.805 26.9844 516.141 28.4922 515.297 29.9453C514.453 31.3828 513.453 32.7266 512.297 33.9766C511.156 35.2266 509.922 36.3125 508.594 37.2344C505.75 39.2344 502.906 40.2344 500.062 40.2344C498.016 40.2344 496.625 39.3984 495.891 37.7266ZM520.547 31.7969C520.609 30.4375 520.836 29.1406 521.227 27.9062C521.617 26.6562 522.141 25.4531 522.797 24.2969C523.453 23.125 524.219 22.0234 525.094 20.9922C525.984 19.9453 526.945 19.0312 527.977 18.25C530.211 16.5781 532.469 15.7422 534.75 15.7422C537.422 15.7422 539.203 16.8438 540.094 19.0469C540.406 19.7969 540.555 20.6875 540.539 21.7188C540.523 22.7344 540.328 23.6797 539.953 24.5547C539.578 25.4141 539.055 26.2031 538.383 26.9219C537.727 27.625 536.938 28.2578 536.016 28.8203C535.109 29.3828 534.117 29.8594 533.039 30.25C530.82 31.0312 528.445 31.4375 525.914 31.4688C525.852 31.6875 525.812 32.0156 525.797 32.4531C525.781 32.8906 525.828 33.3828 525.938 33.9297C526.047 34.4609 526.234 34.9375 526.5 35.3594C527.062 36.2969 527.875 36.7656 528.938 36.7656C530.75 36.7656 532.516 36.2344 534.234 35.1719C534.844 34.8125 535.336 34.4453 535.711 34.0703C536.102 33.6797 536.438 33.4844 536.719 33.4844C537 33.4844 537.242 33.6562 537.445 34C537.664 34.3281 537.773 34.7031 537.773 35.125C537.773 35.9531 537.539 36.6719 537.07 37.2812C535.102 39.25 532.172 40.2344 528.281 40.2344C525.984 40.2344 524.141 39.5469 522.75 38.1719C521.188 36.6094 520.453 34.4844 520.547 31.7969ZM534.234 18.8594C532.594 18.8594 531.016 19.9844 529.5 22.2344C528.219 24.1719 527.188 26.4688 526.406 29.125C529.016 28.8594 531.281 27.8281 533.203 26.0312C534.969 24.3438 535.852 22.7266 535.852 21.1797C535.852 19.6328 535.312 18.8594 534.234 18.8594ZM557.93 33.3438C557.93 32.4375 557.992 31.5703 558.117 30.7422C558.258 29.9141 558.43 29.0781 558.633 28.2344C558.852 27.3906 559.094 26.5469 559.359 25.7031L561.984 17.6875C564.062 11.1875 565.367 6.10938 565.898 2.45312C566.07 1.14062 566.711 0.484375 567.82 0.484375C568.477 0.484375 569.031 0.65625 569.484 1C570.312 1.67188 570.711 2.39062 570.68 3.15625C570.664 3.90625 570.555 4.75 570.352 5.6875C570.164 6.60937 569.914 7.61719 569.602 8.71094C569.305 9.80469 568.961 10.9531 568.57 12.1562C567.523 15.25 566.742 17.4844 566.227 18.8594L564.891 22.3516C566.25 20.2422 567.359 18.7969 568.219 18.0156C569.938 16.5 571.727 15.7422 573.586 15.7422C576.32 15.7422 578.141 17.1719 579.047 20.0312C579.344 21.0156 579.492 22.2422 579.492 23.7109C579.492 25.1797 579.273 26.6406 578.836 28.0938C578.414 29.5312 577.836 30.875 577.102 32.125C576.367 33.3594 575.508 34.4766 574.523 35.4766C573.555 36.4766 572.531 37.3281 571.453 38.0312C569.172 39.5 566.961 40.2344 564.82 40.2344C562.664 40.2344 560.969 39.5781 559.734 38.2656C558.531 36.9531 557.93 35.3125 557.93 33.3438ZM564.492 37.1875C565.961 37.1875 567.453 36.5312 568.969 35.2188C571.281 33.2188 572.836 30.3594 573.633 26.6406C573.898 25.4219 574.031 24.1562 574.031 22.8438C574.031 21.5156 573.883 20.5859 573.586 20.0547C573.289 19.5234 572.828 19.2578 572.203 19.2578C571.594 19.2578 570.953 19.5078 570.281 20.0078C569.609 20.5078 568.906 21.1719 568.172 22C567.438 22.8125 566.711 23.7578 565.992 24.8359C565.273 25.8984 564.625 27 564.047 28.1406C562.781 30.6562 562.148 32.7969 562.148 34.5625C562.148 36.3125 562.93 37.1875 564.492 37.1875ZM582.938 37.7266C582.75 37.2109 582.656 36.625 582.656 35.9688C582.656 35.2969 582.766 34.5547 582.984 33.7422C583.219 32.9141 583.516 32.0547 583.875 31.1641C584.234 30.2734 584.625 29.3594 585.047 28.4219L586.312 25.6094C587.938 22 588.539 19.8594 588.117 19.1875C587.93 18.8906 587.578 18.5938 587.062 18.2969C586.875 18.1875 586.781 18 586.781 17.7344C586.781 17.4531 586.891 17.1875 587.109 16.9375C587.344 16.6875 587.641 16.4688 588 16.2812C588.766 15.9219 589.531 15.7422 590.297 15.7422C591.062 15.7422 591.641 15.8281 592.031 16C592.438 16.1562 592.766 16.3594 593.016 16.6094C593.531 17.125 593.789 17.6953 593.789 18.3203C593.789 18.9453 593.688 19.6484 593.484 20.4297C593.281 21.1953 593.016 22.0312 592.688 22.9375C592.359 23.8438 592 24.7812 591.609 25.75C590.531 28.2812 589.805 29.9531 589.43 30.7656L588.562 32.5703C588.078 33.6484 587.836 34.4062 587.836 34.8438C587.836 35.2812 587.906 35.5938 588.047 35.7812C588.188 35.9531 588.438 36.0391 588.797 36.0391C589.172 36.0391 589.578 35.8984 590.016 35.6172C590.469 35.3359 590.953 34.9609 591.469 34.4922C591.984 34.0234 592.516 33.4844 593.062 32.875C593.625 32.25 594.172 31.6016 594.703 30.9297C596.094 29.2109 597.125 27.7344 597.797 26.5C601.172 20.2812 602.961 17.0312 603.164 16.75C603.68 16.0781 604.195 15.7422 604.711 15.7422C605.242 15.7422 605.703 15.8047 606.094 15.9297C606.484 16.0391 606.82 16.2031 607.102 16.4219C607.727 16.875 607.914 17.3828 607.664 17.9453C607.43 18.5078 607.141 19.2812 606.797 20.2656C603.828 28.875 601.898 34.2422 601.008 36.3672C600.133 38.4922 599.367 40.1953 598.711 41.4766C598.055 42.7734 597.281 44.0781 596.391 45.3906C595.516 46.7031 594.578 47.8984 593.578 48.9766C591.297 51.4141 589.156 52.7188 587.156 52.8906C586.391 52.9531 585.781 52.8438 585.328 52.5625C584.547 52.0938 584.156 51.6484 584.156 51.2266C584.156 50.8047 584.508 50.5078 585.211 50.3359C585.93 50.1797 586.664 49.8516 587.414 49.3516C588.18 48.8672 588.914 48.2969 589.617 47.6406C591.68 45.6719 593.281 43.5312 594.422 41.2188C595.391 39.1875 596.172 37.2656 596.766 35.4531L598.594 29.875C598.141 30.4219 597.641 31.0625 597.094 31.7969L595.406 34.0469C593.938 35.9062 592.719 37.2266 591.75 38.0078C589.906 39.4922 588.258 40.2344 586.805 40.2344C584.867 40.2344 583.578 39.3984 582.938 37.7266ZM625.289 39.0625C624.898 38.6562 624.578 38.1406 624.328 37.5156C624.094 36.875 623.977 36.1406 623.977 35.3125C623.977 34.4688 624.164 33.3438 624.539 31.9375C624.93 30.5312 625.422 28.9297 626.016 27.1328L627.984 21.2969C630.781 13.1719 632.398 6.89062 632.836 2.45312C632.977 1.14062 633.617 0.484375 634.758 0.484375C635.477 0.484375 636.07 0.65625 636.539 1C637.445 1.6875 637.883 2.45312 637.852 3.29688C637.82 4.14062 637.672 5.17188 637.406 6.39062C637.141 7.59375 636.797 8.91406 636.375 10.3516C635.953 11.7734 635.469 13.2812 634.922 14.875L631.688 24.3906C629.828 29.7969 628.898 33.2891 628.898 34.8672C628.898 35.7109 629.242 36.1328 629.93 36.1328C630.586 36.1328 631.18 35.9922 631.711 35.7109C632.258 35.4297 632.609 35.2891 632.766 35.2891C633.094 35.2891 633.258 35.4531 633.258 35.7812C633.258 37.1719 632.547 38.3359 631.125 39.2734C630.172 39.9141 629.297 40.2344 628.5 40.2344C627.719 40.2344 627.086 40.1406 626.602 39.9531C626.117 39.7656 625.68 39.4688 625.289 39.0625ZM639.727 38.4062C639.07 37.7812 638.555 36.9922 638.18 36.0391C637.805 35.0703 637.609 33.9297 637.594 32.6172C637.578 31.3047 637.734 29.9766 638.062 28.6328C638.406 27.2891 638.883 25.9922 639.492 24.7422C640.117 23.4922 640.859 22.3203 641.719 21.2266C642.594 20.1328 643.555 19.1797 644.602 18.3672C646.883 16.6172 649.25 15.7422 651.703 15.7422C654.922 15.7422 657.102 17.1562 658.242 19.9844C659.055 22.0312 659.102 24.5078 658.383 27.4141C657.727 30.0859 656.523 32.5391 654.773 34.7734C653.039 37.0078 650.992 38.5938 648.633 39.5312C647.445 40 646.273 40.2344 645.117 40.2344C643.977 40.2344 642.953 40.0859 642.047 39.7891C641.156 39.4922 640.383 39.0312 639.727 38.4062ZM644.203 27.0391C643.734 28.1953 643.359 29.3828 643.078 30.6016C642.812 31.8203 642.688 32.9766 642.703 34.0703C642.719 35.1484 642.883 36 643.195 36.625C643.523 37.2344 644.047 37.5391 644.766 37.5391C645.484 37.5391 646.188 37.2969 646.875 36.8125C647.578 36.3125 648.258 35.6562 648.914 34.8438C649.57 34.0312 650.188 33.0938 650.766 32.0312C651.344 30.9688 651.852 29.8594 652.289 28.7031C653.242 26.1875 653.703 23.9531 653.672 22C653.672 20.2812 653.32 19.1875 652.617 18.7188C652.336 18.5312 651.938 18.4375 651.422 18.4375C650.922 18.4375 650.344 18.6719 649.688 19.1406C649.031 19.5938 648.375 20.2109 647.719 20.9922C647.062 21.7734 646.43 22.6875 645.82 23.7344C645.211 24.7812 644.672 25.8828 644.203 27.0391ZM662.344 37.7266C662.109 37.2109 661.992 36.6016 661.992 35.8984C661.992 35.1953 662.102 34.4219 662.32 33.5781C662.539 32.7188 662.82 31.8438 663.164 30.9531C663.508 30.0625 663.891 29.1562 664.312 28.2344L665.508 25.5156C667.055 21.9375 667.625 19.8281 667.219 19.1875C667.031 18.8906 666.672 18.5938 666.141 18.2969C665.969 18.1875 665.883 18 665.883 17.7344C665.883 17.4531 665.992 17.1875 666.211 16.9375C666.445 16.6875 666.75 16.4688 667.125 16.2812C667.875 15.9219 668.633 15.7422 669.398 15.7422C670.164 15.7422 670.742 15.8281 671.133 16C671.539 16.1562 671.875 16.3594 672.141 16.6094C672.641 17.125 672.891 17.75 672.891 18.4844C672.891 19.2188 672.75 20.0469 672.469 20.9688C672.188 21.8906 671.836 22.8594 671.414 23.875C670.992 24.8906 670.531 25.9297 670.031 26.9922L668.648 30.0625C667.664 32.3281 667.172 33.8281 667.172 34.5625C667.172 36 667.68 36.7188 668.695 36.7188C671.305 36.7188 673.75 35.1719 676.031 32.0781C677.359 30.2812 678.312 28.3281 678.891 26.2188C679.156 25.2188 679.289 24.3125 679.289 23.5C679.289 22.6719 679.258 21.9844 679.195 21.4375C679.148 20.8906 679.062 20.4062 678.938 19.9844C678.734 19.2344 678.391 18.5859 677.906 18.0391C677.578 17.6328 677.727 17.1562 678.352 16.6094C679.039 16.0312 680.016 15.7422 681.281 15.7422C682.062 15.7422 682.75 16.1094 683.344 16.8438C684.094 17.7188 684.469 18.9766 684.469 20.6172C684.469 22.2422 684.227 23.8438 683.742 25.4219C683.258 26.9844 682.594 28.4922 681.75 29.9453C680.906 31.3828 679.906 32.7266 678.75 33.9766C677.609 35.2266 676.375 36.3125 675.047 37.2344C672.203 39.2344 669.359 40.2344 666.516 40.2344C664.469 40.2344 663.078 39.3984 662.344 37.7266ZM699.422 10.2578C699.078 10.6172 698.688 10.9141 698.25 11.1484C697.812 11.3672 697.352 11.5078 696.867 11.5703C696.383 11.6172 695.922 11.5391 695.484 11.3359C695.062 11.1328 694.695 10.8438 694.383 10.4688C693.711 9.6875 693.375 8.89844 693.375 8.10156C693.375 7.30469 693.5 6.71094 693.75 6.32031C694.016 5.91406 694.344 5.58594 694.734 5.33594C695.484 4.85156 696.188 4.60938 696.844 4.60938C697.516 4.60938 698.031 4.65625 698.391 4.75C698.766 4.84375 699.109 5 699.422 5.21875C700.188 5.73438 700.57 6.36719 700.57 7.11719C700.57 7.85156 700.461 8.46875 700.242 8.96875C700.039 9.45312 699.766 9.88281 699.422 10.2578ZM694.617 35.6172C695.023 35.6172 695.227 35.8828 695.227 36.4141C695.227 37.1172 694.906 37.8438 694.266 38.5938C693.328 39.6875 692.07 40.2344 690.492 40.2344C688.68 40.2344 687.438 39.5 686.766 38.0312C686.516 37.5156 686.391 36.8906 686.391 36.1562C686.391 35.4219 686.516 34.6094 686.766 33.7188C687.031 32.8125 687.352 31.8672 687.727 30.8828C688.117 29.8828 688.539 28.875 688.992 27.8594L690.234 24.9062C691.141 22.7031 691.594 21.25 691.594 20.5469C691.594 19.8438 691.516 19.3828 691.359 19.1641C691.219 18.9297 691.062 18.75 690.891 18.625L690.422 18.2969C690.266 18.1875 690.188 18 690.188 17.7344C690.188 17.4531 690.289 17.1875 690.492 16.9375C690.711 16.6875 690.992 16.4688 691.336 16.2812C692.039 15.9219 692.859 15.7422 693.797 15.7422C696.094 15.7422 697.242 16.3438 697.242 17.5469C697.242 18.9531 696.875 20.5625 696.141 22.375C695.406 24.1719 694.781 25.625 694.266 26.7344L692.859 29.9688C691.828 32.3438 691.312 34.0547 691.312 35.1016C691.312 35.7891 691.656 36.1328 692.344 36.1328C693.016 36.1328 693.523 36.0469 693.867 35.875C694.211 35.7031 694.461 35.6172 694.617 35.6172ZM717.398 20.1719C716.914 20.1719 716.227 20.6406 715.336 21.5781C714.445 22.5 713.672 23.3438 713.016 24.1094L711.023 26.5L707.18 31.3984C706.273 33.1172 705.562 34.5469 705.047 35.6875L703.781 38.4062C703.453 39.0781 703.164 39.5547 702.914 39.8359C702.68 40.1016 702.352 40.2344 701.93 40.2344C701.523 40.2344 701.125 40.1562 700.734 40C700.359 39.8594 700.031 39.6719 699.75 39.4375C699.156 38.9375 698.859 38.3906 698.859 37.7969C698.859 37.5625 699.031 37.1016 699.375 36.4141L700.266 34.5156C700.547 33.9531 700.875 33.2344 701.25 32.3594L702.562 29.1484C704.406 24.5391 705.328 21.5625 705.328 20.2188C705.328 19.5 705.094 18.9688 704.625 18.625L704.156 18.2969C704 18.1875 703.922 18 703.922 17.7344C703.922 17.4531 704.023 17.1875 704.227 16.9375C704.445 16.6875 704.727 16.4688 705.07 16.2812C705.773 15.9219 706.477 15.7422 707.18 15.7422C707.898 15.7422 708.453 15.8203 708.844 15.9766C709.234 16.1328 709.562 16.3438 709.828 16.6094C710.406 17.1562 710.695 17.7266 710.695 18.3203C710.695 18.9141 710.617 19.5156 710.461 20.125C710.32 20.7188 710.133 21.3281 709.898 21.9531C709.68 22.5625 709.445 23.1641 709.195 23.7578C708.945 24.3516 708.719 24.8672 708.516 25.3047L708.047 26.3125C707.922 26.5625 707.891 26.6406 707.953 26.5469C709.688 24.1406 710.828 22.5938 711.375 21.9062L713.016 19.9375C714.219 18.5312 715.164 17.6016 715.852 17.1484C717.242 16.2109 718.336 15.7422 719.133 15.7422C719.93 15.7422 720.602 15.8438 721.148 16.0469C721.695 16.25 722.172 16.5391 722.578 16.9141C723.438 17.7109 723.867 18.7266 723.867 19.9609C723.867 21.1953 723.586 22.4844 723.023 23.8281C722.461 25.1719 721.969 26.2656 721.547 27.1094C721.141 27.9375 720.75 28.7812 720.375 29.6406C719.203 32.25 718.617 34.1484 718.617 35.3359C718.617 35.8672 719.039 36.1328 719.883 36.1328C720.539 36.1328 721.133 35.9922 721.664 35.7109C722.211 35.4297 722.562 35.2891 722.719 35.2891C723.047 35.2891 723.211 35.4531 723.211 35.7812C723.211 37.1719 722.5 38.3359 721.078 39.2734C720.125 39.9141 719.25 40.2344 718.453 40.2344C717.656 40.2344 716.992 40.1484 716.461 39.9766C715.945 39.8047 715.484 39.5312 715.078 39.1562C714.156 38.3281 713.695 37.1719 713.695 35.6875C713.695 33.875 714.266 31.6094 715.406 28.8906C716.234 27.0312 716.82 25.7578 717.164 25.0703L717.961 23.4062C718.445 22.4062 718.688 21.6172 718.688 21.0391C718.688 20.4609 718.258 20.1719 717.398 20.1719ZM741.188 34.8906C738.812 38.4531 736.18 40.2344 733.289 40.2344C730.68 40.2344 728.922 38.8438 728.016 36.0625C727.703 35.1094 727.547 33.9375 727.547 32.5469C727.547 31.1562 727.742 29.7656 728.133 28.375C728.539 26.9688 729.086 25.6406 729.773 24.3906C730.461 23.1406 731.266 21.9922 732.188 20.9453C733.125 19.8828 734.125 18.9688 735.188 18.2031C737.406 16.5625 739.609 15.7422 741.797 15.7422C743.984 15.7422 745.547 16.7656 746.484 18.8125C746.672 18.6094 746.844 18.4062 747 18.2031C747.156 17.9844 747.328 17.7812 747.516 17.5938C747.922 17.1875 748.273 16.9844 748.57 16.9844C748.883 16.9844 749.203 17.0391 749.531 17.1484C749.875 17.2578 750.203 17.4062 750.516 17.5938C751.281 18.0469 751.57 18.4688 751.383 18.8594C750.523 20.7188 749.805 22.5469 749.227 24.3438L745.758 35.4062C743.023 43.7969 739.555 49.2188 735.352 51.6719C734.242 52.3281 733.281 52.7031 732.469 52.7969C731.656 52.9062 731.07 52.9141 730.711 52.8203C730.352 52.7266 730.031 52.5938 729.75 52.4219C729.141 52.0312 728.836 51.6797 728.836 51.3672C728.836 50.8203 729.195 50.4844 729.914 50.3594C730.648 50.2344 731.414 49.9375 732.211 49.4688C733.008 49.0156 733.766 48.4609 734.484 47.8047C737.438 45.0703 739.672 40.7656 741.188 34.8906ZM734.156 26.7578C733.75 27.8828 733.43 29.0391 733.195 30.2266C732.961 31.3984 732.844 32.3594 732.844 33.1094C732.844 33.8594 732.867 34.4297 732.914 34.8203C732.961 35.2109 733.055 35.5547 733.195 35.8516C733.508 36.5078 733.969 36.8359 734.578 36.8359C735.188 36.8359 735.789 36.625 736.383 36.2031C736.977 35.7656 737.602 35.1719 738.258 34.4219C738.914 33.6719 739.57 32.7891 740.227 31.7734C740.883 30.7578 741.508 29.6641 742.102 28.4922C743.414 25.8984 744.336 23.4219 744.867 21.0625C744.789 20.625 744.523 20.1797 744.07 19.7266C743.18 18.8672 742.375 18.4375 741.656 18.4375C740.938 18.4375 740.219 18.6641 739.5 19.1172C738.781 19.5547 738.094 20.1562 737.438 20.9219C736.797 21.6719 736.195 22.5547 735.633 23.5703C735.07 24.5703 734.578 25.6328 734.156 26.7578ZM753.352 39.2031C753.008 38.8594 752.734 38.4688 752.531 38.0312C752.328 37.5781 752.227 37.0625 752.227 36.4844C752.227 35.8906 752.336 35.3672 752.555 34.9141C752.789 34.4453 753.078 34.0703 753.422 33.7891C754.031 33.2891 754.672 33.0391 755.344 33.0391C756.031 33.0391 756.609 33.0859 757.078 33.1797C757.562 33.2734 758.016 33.4219 758.438 33.625C759.406 34.125 759.891 34.8438 759.891 35.7812C759.891 36.9531 759.508 37.9766 758.742 38.8516C758.023 39.6641 757.273 40.1094 756.492 40.1875C755.727 40.2656 755.102 40.2031 754.617 40C754.133 39.8125 753.711 39.5469 753.352 39.2031Z" fill="#555555"/>
</svg>
