<svg width="54" height="54" viewBox="0 0 54 54" fill="none" xmlns="http://www.w3.org/2000/svg">
<path d="M22.5 36C23.7375 36 24.75 34.9875 24.75 33.75V20.25C24.75 19.0125 23.7375 18 22.5 18C21.2625 18 20.25 19.0125 20.25 20.25V33.75C20.25 34.9875 21.2625 36 22.5 36ZM27 4.5C14.58 4.5 4.5 14.58 4.5 27C4.5 39.42 14.58 49.5 27 49.5C39.42 49.5 49.5 39.42 49.5 27C49.5 14.58 39.42 4.5 27 4.5ZM27 45C17.0775 45 9 36.9225 9 27C9 17.0775 17.0775 9 27 9C36.9225 9 45 17.0775 45 27C45 36.9225 36.9225 45 27 45ZM31.5 36C32.7375 36 33.75 34.9875 33.75 33.75V20.25C33.75 19.0125 32.7375 18 31.5 18C30.2625 18 29.25 19.0125 29.25 20.25V33.75C29.25 34.9875 30.2625 36 31.5 36Z" fill="#689A41"/>
</svg>
