<svg width="45" height="45" viewBox="0 0 45 45" fill="none" xmlns="http://www.w3.org/2000/svg">
<path d="M32.6762 23.8984L16.8637 33.5117C15.4441 34.3023 13.6562 33.2871 13.6562 31.625V12.9375C13.6562 11.2844 15.4352 10.2602 16.8637 11.0508L32.6762 20.125C34.1496 20.9426 34.1496 23.0719 32.6762 23.8984ZM44.5625 22.2812C44.5625 34.5898 34.5898 44.5625 22.2812 44.5625C9.97266 44.5625 0 34.5898 0 22.2812C0 9.97266 9.97266 0 22.2812 0C34.5898 0 44.5625 9.97266 44.5625 22.2812ZM4.3125 22.2812C4.3125 32.209 12.3535 40.25 22.2812 40.25C32.209 40.25 40.25 32.209 40.25 22.2812C40.25 12.3535 32.209 4.3125 22.2812 4.3125C12.3535 4.3125 4.3125 12.3535 4.3125 22.2812Z" fill="#689A41"/>
</svg>
