<svg width="50" height="50" viewBox="0 0 50 50" fill="none" xmlns="http://www.w3.org/2000/svg">
<path d="M8.33329 8.33342H22.9166V4.16675H8.33329C7.22822 4.16675 6.16842 4.60573 5.38701 5.38714C4.60561 6.16854 4.16663 7.22835 4.16663 8.33342V22.9167H8.33329V8.33342ZM20.8333 27.0834L12.5 37.5001H37.5L31.25 29.1667L27.0208 34.8126L20.8333 27.0834ZM35.4166 17.7084C35.4166 16.8796 35.0874 16.0848 34.5013 15.4987C33.9153 14.9127 33.1204 14.5834 32.2916 14.5834C31.4628 14.5834 30.668 14.9127 30.0819 15.4987C29.4959 16.0848 29.1666 16.8796 29.1666 17.7084C29.1666 18.5372 29.4959 19.3321 30.0819 19.9181C30.668 20.5042 31.4628 20.8334 32.2916 20.8334C33.1204 20.8334 33.9153 20.5042 34.5013 19.9181C35.0874 19.3321 35.4166 18.5372 35.4166 17.7084ZM41.6666 4.16675H27.0833V8.33342H41.6666V22.9167H45.8333V8.33342C45.8333 7.22835 45.3943 6.16854 44.6129 5.38714C43.8315 4.60573 42.7717 4.16675 41.6666 4.16675ZM41.6666 41.6668H27.0833V45.8334H41.6666C42.7717 45.8334 43.8315 45.3944 44.6129 44.613C45.3943 43.8316 45.8333 42.7718 45.8333 41.6668V27.0834H41.6666V41.6668ZM8.33329 27.0834H4.16663V41.6668C4.16663 42.7718 4.60561 43.8316 5.38701 44.613C6.16842 45.3944 7.22822 45.8334 8.33329 45.8334H22.9166V41.6668H8.33329V27.0834Z" fill="#689A41"/>
</svg>
