<svg width="43" height="41" viewBox="0 0 43 41" fill="none" xmlns="http://www.w3.org/2000/svg">
<rect x="0.5" y="0.5" width="42" height="40" rx="4.5" fill="#689A41" stroke="white"/>
<g clip-path="url(#clip0)">
<path d="M22.2929 9V14.5606H27.3003V18.0143H22.2929V23.656C22.2929 24.9311 22.3575 25.7499 22.4874 26.1123C22.6166 26.4742 22.8582 26.7632 23.2101 26.9795C23.677 27.2712 24.2106 27.4174 24.8121 27.4174C25.88 27.4174 26.9429 27.0549 28 26.3307V29.8003C27.098 30.2431 26.2814 30.5546 25.551 30.7327C24.8197 30.9109 24.0291 31 23.1795 31C22.2152 31 21.3624 30.8728 20.6211 30.6192C19.8799 30.3648 19.2478 30.0023 18.7241 29.5331C18.2005 29.0625 17.8375 28.5627 17.6356 28.0329C17.4333 27.5038 17.3322 26.736 17.3322 25.7308V18.0143H15V14.9009C15.8288 14.6201 16.5395 14.2179 17.13 13.6931C17.7214 13.1692 18.1955 12.5395 18.553 11.8043C18.9109 11.0699 19.157 10.1348 19.2915 9.00002H22.2928" fill="white"/>
</g>
<defs>
<clipPath id="clip0">
<rect x="15" y="9" width="13" height="22" fill="white"/>
</clipPath>
</defs>
</svg>
